<svg width="176" height="46" viewBox="0 0 176 46" fill="none" xmlns="http://www.w3.org/2000/svg">
<path d="M47.0746 10.2045C48.162 9.90334 48.9483 9.51859 49.5338 9.05018C50.7215 9.33457 52.0598 9.76952 53.1471 10.2045H47.0746ZM49.7178 15.1729H46.6062V14.1022H49.7178V15.1729ZM57.597 10.2045H54.9706L55.5393 9.41821C54.4018 8.86617 52.3274 8.21375 50.6378 7.829H55.3553V6.28996H51.0059C51.0561 6.00558 51.0895 5.70446 51.123 5.38662H55.4557V7.12639H57.3962V3.69703H51.1732V2.55948H49.1825V3.69703H42.9761V7.12639H44.8163V5.38662H49.2661C49.2326 5.70446 49.1992 6.00558 49.1323 6.28996H44.9334V7.829H48.3293C47.6434 8.48141 46.4724 8.89963 44.3981 9.16729C44.6155 9.40149 44.8999 9.8197 45.0839 10.2045H42.7754V11.9442H53.4315V16.1264C53.4315 16.3271 53.3479 16.3773 53.097 16.4108C52.8795 16.4108 52.2438 16.4108 51.5746 16.3941V12.6301H44.7828V17.4814H46.6062V16.6283H51.1732C51.3906 17.1134 51.5914 17.7156 51.6583 18.1673C52.9129 18.1673 53.8665 18.1506 54.5189 17.8829C55.2215 17.5985 55.4055 17.1301 55.4055 16.1766V11.9442H57.597V10.2045Z" fill="#212121"/>
<path d="M76.5338 15.9424H70.8627V14.2862H76.5338V15.9424ZM68.0356 5.11896H76.6509V6.2565H68.0356V5.11896ZM79.5951 11.1747V9.40149H74.61V7.99628H78.6583V3.37918H66.0449V8.28067C66.0449 10.9238 65.8943 14.6543 64.1713 17.197C64.6564 17.3978 65.5598 17.8996 65.9445 18.2342C67.768 15.5074 68.0356 11.1747 68.0356 8.28067V7.99628H72.636V9.40149H68.2029V11.1747H72.636V12.5465H68.9557V18.184H70.8627V17.6822H76.5338V18.1673H78.5245V12.5465H74.61V11.1747H79.5951Z" fill="#212121"/>
<path d="M89.6657 5.05204V8.24721H88.478V5.05204H89.6657ZM92.4427 8.24721H91.2215V5.05204H92.4427V8.24721ZM91.2215 13.3327V9.95353H92.4427V13.3327H91.2215ZM88.478 9.95353H89.6657V13.3327H88.478V9.95353ZM94.1657 3.31227H86.8051V16.3271H88.478V15.0725H94.1657V3.31227ZM101.894 4.3829H94.5003V6.34015H97.7289V15.842C97.7289 16.1264 97.6118 16.2268 97.294 16.2268C96.9929 16.2268 95.8386 16.2435 94.8851 16.1933C95.1527 16.7286 95.4706 17.6152 95.5542 18.184C97.0765 18.184 98.1137 18.1506 98.833 17.816C99.5523 17.4981 99.7865 16.9628 99.7865 15.8755V6.34015H101.894V4.3829Z" fill="#212121"/>
<path d="M57.7977 32.5874L56.4761 31.3494C56.1583 31.4498 55.2382 31.5 54.7698 31.5H45.7531C45.0505 31.5 44.3479 31.4331 43.7122 31.3327V33.658C44.4984 33.5911 45.0505 33.5409 45.7531 33.5409H54.4687C54.0338 34.3606 52.7289 35.8327 51.3906 36.6524L53.1304 38.0409C54.7698 36.8699 56.359 34.7621 57.1453 33.4572C57.2958 33.2063 57.6137 32.8048 57.7977 32.5874ZM50.9724 34.8457H48.5468C48.6304 35.381 48.6639 35.8327 48.6639 36.3513C48.6639 39.0948 48.2624 40.868 46.1378 42.3401C45.5189 42.7918 44.9167 43.0762 44.3813 43.2602L46.3386 44.8494C50.8888 42.4071 50.9724 38.9944 50.9724 34.8457Z" fill="#212121"/>
<path d="M62.1002 37.4052L63.1541 39.513C65.2117 38.9108 67.3363 38.0074 69.0593 37.1041V42.4572C69.0593 43.1933 69.0091 44.2472 68.9422 44.6487H71.5853C71.4682 44.2305 71.4348 43.1933 71.4348 42.4572V35.6989C73.0575 34.6283 74.6634 33.3234 75.9348 32.0688L74.1281 30.3457C73.0407 31.6673 71.1337 33.3401 69.4106 34.4108C67.5537 35.5483 65.0946 36.6357 62.1002 37.4052Z" fill="#212121"/>
<path d="M84.2824 31.2825V33.4405C84.7842 33.4071 85.5036 33.3903 86.0723 33.3903H91.5426C92.1281 33.3903 92.7805 33.4071 93.3493 33.4405V31.2825C92.7805 31.3662 92.1114 31.4164 91.5426 31.4164H86.0723C85.5036 31.4164 84.8177 31.3662 84.2824 31.2825ZM82.3419 35.5651V37.7565C82.8103 37.723 83.4627 37.6896 83.9478 37.6896H88.5482C88.4813 39.0948 88.1969 40.3494 87.511 41.3866C86.8418 42.3736 85.6708 43.3271 84.4831 43.7788L86.4404 45.2007C87.9292 44.448 89.2173 43.1598 89.8028 41.9888C90.405 40.8178 90.7731 39.4126 90.8734 37.6896H94.905C95.3734 37.6896 96.0091 37.7063 96.4274 37.7398V35.5651C95.9924 35.632 95.2563 35.6654 94.905 35.6654H83.9478C83.4292 35.6654 82.8437 35.632 82.3419 35.5651ZM94.353 30.1283L93.0147 30.6803C93.4664 31.316 93.985 32.3197 94.3363 33.0056L95.6746 32.4201C95.3567 31.8011 94.7712 30.7472 94.353 30.1283ZM96.327 29.3755L95.0054 29.9275C95.4571 30.5632 95.9924 31.5335 96.3437 32.2361L97.682 31.6506C97.3809 31.0651 96.7619 30.0112 96.327 29.3755Z" fill="#212121"/>
<path d="M101.825 39.145L102.812 41.119C104.268 40.6673 106.141 39.8978 107.614 39.1617V43.5781C107.614 44.1636 107.563 45.0502 107.53 45.3848H110.006C109.905 45.0502 109.889 44.1636 109.889 43.5781V37.8401C111.378 36.8532 112.85 35.6654 113.636 34.7955L111.98 33.1729C111.127 34.2602 109.437 35.7658 107.814 36.7528C106.493 37.5558 104 38.6766 101.825 39.145Z" fill="#212121"/>
<path d="M136.086 32.5874L134.764 31.3494C134.446 31.4498 133.526 31.5 133.058 31.5H124.041C123.338 31.5 122.636 31.4331 122 31.3327V33.658C122.786 33.5911 123.338 33.5409 124.041 33.5409H132.757C132.322 34.3606 131.017 35.8327 129.679 36.6524L131.418 38.0409C133.058 36.8699 134.647 34.7621 135.433 33.4572C135.584 33.2063 135.902 32.8048 136.086 32.5874ZM129.26 34.8457H126.835C126.918 35.381 126.952 35.8327 126.952 36.3513C126.952 39.0948 126.55 40.868 124.426 42.3401C123.807 42.7918 123.205 43.0762 122.669 43.2602L124.627 44.8494C129.177 42.4071 129.26 38.9944 129.26 34.8457Z" fill="#212121"/>
<path d="M144.266 42.9424L146.257 44.6487C148.9 43.3606 150.757 41.5372 152.062 39.513C153.283 37.6394 153.952 35.5985 154.387 33.6413C154.504 33.1561 154.688 32.3364 154.889 31.684L152.179 31.316C152.195 31.7342 152.128 32.5706 151.961 33.3401C151.693 34.7119 151.225 36.6022 149.987 38.3922C148.783 40.1487 146.976 41.8048 144.266 42.9424ZM143.915 31.3996L141.773 32.5037C142.543 33.5743 143.764 35.7658 144.601 37.5558L146.809 36.3011C146.19 35.1301 144.751 32.5706 143.915 31.3996Z" fill="#212121"/>
<path d="M164.29 31.1989L162.718 32.8717C163.939 33.7249 166.03 35.5483 166.9 36.4851L168.606 34.7453C167.636 33.7249 165.461 31.9851 164.29 31.1989ZM162.199 42.3401L163.604 44.5483C165.963 44.1468 168.121 43.21 169.811 42.1896C172.504 40.5669 174.729 38.2584 176 36L174.695 33.6413C173.641 35.8996 171.467 38.4591 168.606 40.1487C166.983 41.119 164.809 41.9721 162.199 42.3401Z" fill="#212121"/>
<rect x="13.9404" y="30.6691" width="13.2435" height="12.5465" rx="4" fill="#3F98F7"/>
<rect width="27.184" height="25.79" rx="6" fill="#FFD74F"/>
</svg>
